<svg xmlns="http://www.w3.org/2000/svg" width="192.172" height="192.172" viewBox="0 0 192.172 192.172">
  <g id="Group_27" data-name="Group 27" transform="translate(-1094.25 -2306)">
    <g id="Path_92" data-name="Path 92" transform="translate(1094.25 2306)" fill="#fff">
      <path d="M 96.08596038818359 190.1719360351562 C 89.70104217529297 190.1719360351562 83.32072448730469 189.52880859375 77.12225341796875 188.2604064941406 C 71.08230590820312 187.0244598388672 65.14125061035156 185.1802520751953 59.46406555175781 182.7790069580078 C 53.8895149230957 180.4211730957031 48.51272201538086 177.5027160644531 43.48301315307617 174.1047210693359 C 38.50056457519531 170.7386474609375 33.81522369384766 166.8728790283203 29.55714416503906 162.6148071289062 C 25.2990665435791 158.3567047119141 21.43330192565918 153.67138671875 18.06722259521484 148.6889343261719 C 14.66922378540039 143.6592254638672 11.75077629089355 138.2824096679688 9.39293384552002 132.7078552246094 C 6.991697311401367 127.0306701660156 5.147486686706543 121.0896148681641 3.911539316177368 115.0496978759766 C 2.643144607543945 108.8511962890625 2.000013113021851 102.4708786010742 2.000013113021851 96.08596038818359 C 2.000013113021851 89.70104217529297 2.643144607543945 83.32072448730469 3.911539316177368 77.12225341796875 C 5.147486686706543 71.08230590820312 6.991697311401367 65.14125061035156 9.39293384552002 59.46406555175781 C 11.75077629089355 53.8895149230957 14.66922378540039 48.51272201538086 18.06722259521484 43.48301315307617 C 21.43330192565918 38.50056457519531 25.2990665435791 33.81522369384766 29.55714416503906 29.55714416503906 C 33.81522369384766 25.2990665435791 38.50056457519531 21.43330192565918 43.48301315307617 18.06722259521484 C 48.51272201538086 14.66922378540039 53.8895149230957 11.75077629089355 59.46406555175781 9.39293384552002 C 65.14125061035156 6.991697311401367 71.08230590820312 5.147486686706543 77.12225341796875 3.911539316177368 C 83.32072448730469 2.643144607543945 89.70104217529297 2.000013113021851 96.08596038818359 2.000013113021851 C 102.4708786010742 2.000013113021851 108.8511962890625 2.643144607543945 115.0496978759766 3.911539316177368 C 121.0896148681641 5.147486686706543 127.0306701660156 6.991697311401367 132.7078552246094 9.39293384552002 C 138.2824096679688 11.75077629089355 143.6592254638672 14.66922378540039 148.6889343261719 18.06722259521484 C 153.67138671875 21.43330192565918 158.3567047119141 25.2990665435791 162.6148071289062 29.55714416503906 C 166.8728790283203 33.81522369384766 170.7386474609375 38.50056457519531 174.1047210693359 43.48301315307617 C 177.5027160644531 48.51272201538086 180.4211730957031 53.8895149230957 182.7790069580078 59.46406555175781 C 185.1802520751953 65.14125061035156 187.0244598388672 71.08230590820312 188.2604064941406 77.12225341796875 C 189.52880859375 83.32072448730469 190.1719360351562 89.70104217529297 190.1719360351562 96.08596038818359 C 190.1719360351562 102.4708786010742 189.52880859375 108.8511962890625 188.2604064941406 115.0496978759766 C 187.0244598388672 121.0896148681641 185.1802520751953 127.0306701660156 182.7790069580078 132.7078552246094 C 180.4211730957031 138.2824096679688 177.5027160644531 143.6592254638672 174.1047210693359 148.6889343261719 C 170.7386474609375 153.67138671875 166.8728790283203 158.3567047119141 162.6148071289062 162.6148071289062 C 158.3567047119141 166.8728790283203 153.67138671875 170.7386474609375 148.6889343261719 174.1047210693359 C 143.6592254638672 177.5027160644531 138.2824096679688 180.4211730957031 132.7078552246094 182.7790069580078 C 127.0306701660156 185.1802520751953 121.0896148681641 187.0244598388672 115.0496978759766 188.2604064941406 C 108.8511962890625 189.52880859375 102.4708786010742 190.1719360351562 96.08596038818359 190.1719360351562 Z" stroke="none"/>
      <path d="M 96.08596038818359 3.999984741210938 C 89.83543395996094 3.999984741210938 83.59001922607422 4.62945556640625 77.52318572998047 5.87091064453125 C 71.61260223388672 7.080398559570312 65.79876708984375 8.885101318359375 60.24317932128906 11.23493957519531 C 54.78756713867188 13.54246520996094 49.52531433105469 16.39874267578125 44.60260009765625 19.72445678710938 C 39.72566223144531 23.01927185058594 35.13943481445312 26.80326843261719 30.97134399414062 30.97134399414062 C 26.80326843261719 35.13943481445312 23.01927185058594 39.72566223144531 19.72445678710938 44.60260009765625 C 16.39874267578125 49.52531433105469 13.54246520996094 54.78756713867188 11.23493957519531 60.24317932128906 C 8.885101318359375 65.79876708984375 7.080398559570312 71.61260223388672 5.87091064453125 77.52318572998047 C 4.62945556640625 83.59001922607422 3.999984741210938 89.83543395996094 3.999984741210938 96.08596038818359 C 3.999984741210938 102.3364868164062 4.62945556640625 108.581901550293 5.87091064453125 114.6487350463867 C 7.080398559570312 120.5593185424805 8.885101318359375 126.3731536865234 11.23493957519531 131.9287414550781 C 13.54246520996094 137.3843536376953 16.39874267578125 142.6466064453125 19.72445678710938 147.5692901611328 C 23.01927185058594 152.4462585449219 26.80326843261719 157.0324859619141 30.97134399414062 161.2005462646484 C 35.13943481445312 165.3686218261719 39.72566223144531 169.1526336669922 44.60260009765625 172.4474334716797 C 49.52531433105469 175.7731628417969 54.78756713867188 178.6294555664062 60.24317932128906 180.9369812011719 C 65.79876708984375 183.2867889404297 71.61260223388672 185.0915222167969 77.52318572998047 186.3009948730469 C 83.59001922607422 187.5424346923828 89.83543395996094 188.1719055175781 96.08596038818359 188.1719055175781 C 102.3364868164062 188.1719055175781 108.581901550293 187.5424346923828 114.6487350463867 186.3009948730469 C 120.5593185424805 185.0915222167969 126.3731536865234 183.2867889404297 131.9287414550781 180.9369812011719 C 137.3843536376953 178.6294555664062 142.6466064453125 175.7731628417969 147.5692901611328 172.4474334716797 C 152.4462585449219 169.1526336669922 157.0324859619141 165.3686218261719 161.2005462646484 161.2005462646484 C 165.3686218261719 157.0324859619141 169.1526336669922 152.4462585449219 172.4474334716797 147.5692901611328 C 175.7731628417969 142.6466064453125 178.6294555664062 137.3843536376953 180.9369812011719 131.9287414550781 C 183.2867889404297 126.3731536865234 185.0915222167969 120.5593185424805 186.3009948730469 114.6487350463867 C 187.5424346923828 108.581901550293 188.1719055175781 102.3364868164062 188.1719055175781 96.08596038818359 C 188.1719055175781 89.83543395996094 187.5424346923828 83.59001922607422 186.3009948730469 77.52318572998047 C 185.0915222167969 71.61260223388672 183.2867889404297 65.79876708984375 180.9369812011719 60.24317932128906 C 178.6294555664062 54.78756713867188 175.7731628417969 49.52531433105469 172.4474334716797 44.60260009765625 C 169.1526336669922 39.72566223144531 165.3686218261719 35.13943481445312 161.2005462646484 30.97134399414062 C 157.0324859619141 26.80326843261719 152.4462585449219 23.01927185058594 147.5692901611328 19.72445678710938 C 142.6466064453125 16.39874267578125 137.3843536376953 13.54246520996094 131.9287414550781 11.23493957519531 C 126.3731536865234 8.885101318359375 120.5593185424805 7.080398559570312 114.6487350463867 5.87091064453125 C 108.581901550293 4.62945556640625 102.3364868164062 3.999984741210938 96.08596038818359 3.999984741210938 M 96.08596038818359 -1.52587890625e-05 C 149.1527709960938 -1.52587890625e-05 192.1719055175781 43.01914978027344 192.1719055175781 96.08596038818359 C 192.1719055175781 149.1527709960938 149.1527709960938 192.1719055175781 96.08596038818359 192.1719055175781 C 43.01914978027344 192.1719055175781 -1.52587890625e-05 149.1527709960938 -1.52587890625e-05 96.08596038818359 C -1.52587890625e-05 43.01914978027344 43.01914978027344 -1.52587890625e-05 96.08596038818359 -1.52587890625e-05 Z" stroke="none" fill="#cbcbcb"/>
    </g>
    <ellipse id="Ellipse_2" data-name="Ellipse 2" cx="77.5" cy="77" rx="77.5" ry="77" transform="translate(1113 2325)"/>
    <g id="_003-layers" data-name="003-layers" transform="translate(1241.526 2657.131)">
      <path id="_004-cloud" data-name="004-cloud" d="M30.89,54.481H13.4A13.415,13.415,0,0,1,0,41.08,14.688,14.688,0,0,1,7.949,28.412l.7-.335V27.3c0-.157.01-.316.019-.477l.011-.2-.015-.259c-.007-.1-.015-.2-.015-.3A8.591,8.591,0,0,1,18.431,17.5c.1.012.193.028.288.044a8.423,8.423,0,0,1,.975.219c.043.012.088.021.131.033a8.417,8.417,0,0,1,1.032.4c.088.04.173.083.259.125a8.631,8.631,0,0,1,4.831,7.748,1.236,1.236,0,0,0,2.471,0,11.1,11.1,0,0,0-3.954-8.49A19.572,19.572,0,0,1,39.644,10,18.653,18.653,0,0,1,57.99,27.16a23.6,23.6,0,0,0-5.045.153,1.236,1.236,0,0,0,.184,2.458,1.187,1.187,0,0,0,.187-.015,22.7,22.7,0,0,1,5.788,0,12.664,12.664,0,0,1,10.09,12.337A12.405,12.405,0,0,1,56.8,54.481H30.89Z" transform="translate(-85.526 -287.131)" fill="#fff"/>
    </g>
  </g>
</svg>
