<svg xmlns="http://www.w3.org/2000/svg" width="1646.264" height="146.921" viewBox="0 0 1646.264 146.921">
  <path id="Path_100" data-name="Path 100" d="M127.836-104.118V-140.9H1v36.783H41V0H87.636V-104.118Zm130.248-1.407V-140.9H138.891V0h121V-35.376h-74.37V-52.863h65.928V-88.239H185.523v-17.286Zm88.842-36.783c-44.22,0-76.38,30.15-76.38,71.556,0,42.009,31.356,72.762,74.571,72.762,21.708,0,45.627-11.055,61.3-28.14L379.488-54.873c-9.246,9.849-21.909,16.08-31.959,16.08-16.884,0-29.145-13.668-29.145-32.562,0-18.693,12.261-32.16,29.145-32.16,10.854,0,23.517,7.437,31.959,18.894l26.934-31.959C391.95-132.258,368.433-142.308,346.926-142.308ZM552.75,0V-140.9H506.118v54.672H462.5V-140.9H415.869V0H462.5V-50.853h43.617V0ZM709.731,0V-140.9h-42.21v72.36L611.844-140.9H572.85V0h42.411V-71.958L670.737,0Zm90.45-142.308c-44.823,0-77.385,29.949-77.385,71.757,0,42.009,32.562,72.561,77.385,72.561s77.385-30.753,77.385-72.561C877.566-112.158,845-142.308,800.181-142.308Zm.6,38.793c16.08,0,28.944,13.869,28.944,33.165s-12.864,33.567-28.944,33.567-30.15-14.271-30.15-33.567S784.5-103.515,800.784-103.515ZM937.263-38.793V-140.9H890.631V0H995.955V-38.793Zm141.1-103.515c-44.823,0-77.385,29.949-77.385,71.757,0,42.009,32.562,72.561,77.385,72.561s77.385-30.753,77.385-72.561C1155.75-112.158,1123.188-142.308,1078.365-142.308Zm.6,38.793c16.08,0,28.944,13.869,28.944,33.165s-12.864,33.567-28.944,33.567-30.15-14.271-30.15-33.567S1062.687-103.515,1078.968-103.515Zm180.9,29.346v32.763c-6.834,2.814-13.668,4.623-18.492,4.623-18.291,0-31.758-14.07-31.758-33.567,0-19.1,13.266-33.165,31.356-33.165,11.658,0,25.326,5.829,34.773,14.874l26.331-31.959c-15.075-13.266-38.994-21.708-60.9-21.708-46.029,0-79.4,30.351-79.4,71.958,0,41.808,32.16,72.36,76.38,72.36,20.1,0,46.029-7.638,61.707-18.09V-74.169ZM1363.785,0V-140.9h-46.632V0Zm139.293-105.525V-140.9H1383.885V0h121V-35.376h-74.37V-52.863h65.928V-88.239h-65.928v-17.286Zm80.6-37.386c-36.582,0-60.3,17.688-60.3,45.828,0,49.446,72.963,37.386,72.963,55.677,0,5.025-4.422,7.236-11.256,7.236-14.271,0-39.2-9.849-53.667-21.909L1514.133-21.1c18.693,14.271,46.029,22.512,70.551,22.512,31.758,0,59.295-13.869,59.295-45.225,0-51.054-72.963-40-72.963-57.687,0-4.221,3.417-5.829,8.643-5.829,12.261,0,34.17,8.643,48.441,16.482l16.884-35.376C1629.1-136.278,1605.99-142.911,1583.679-142.911Z" transform="translate(-0.005 143.911)" fill="#fff" stroke="#000" stroke-width="2" opacity="0.212"/>
</svg>
