<svg xmlns="http://www.w3.org/2000/svg" width="192.172" height="192.172" viewBox="0 0 192.172 192.172">
  <g id="Group_25" data-name="Group 25" transform="translate(-134.249 -2306)">
    <g id="Path_92" data-name="Path 92" transform="translate(134.249 2306)" fill="#fff">
      <path d="M 96.08596038818359 190.1719360351562 C 89.70104217529297 190.1719360351562 83.32072448730469 189.52880859375 77.12225341796875 188.2604064941406 C 71.08230590820312 187.0244598388672 65.14125061035156 185.1802520751953 59.46406555175781 182.7790069580078 C 53.8895149230957 180.4211730957031 48.51272201538086 177.5027160644531 43.48301315307617 174.1047210693359 C 38.50056457519531 170.7386474609375 33.81522369384766 166.8728790283203 29.55714416503906 162.6148071289062 C 25.2990665435791 158.3567047119141 21.43330192565918 153.67138671875 18.06722259521484 148.6889343261719 C 14.66922378540039 143.6592254638672 11.75077629089355 138.2824096679688 9.39293384552002 132.7078552246094 C 6.991697311401367 127.0306701660156 5.147486686706543 121.0896148681641 3.911539316177368 115.0496978759766 C 2.643144607543945 108.8511962890625 2.000013113021851 102.4708786010742 2.000013113021851 96.08596038818359 C 2.000013113021851 89.70104217529297 2.643144607543945 83.32072448730469 3.911539316177368 77.12225341796875 C 5.147486686706543 71.08230590820312 6.991697311401367 65.14125061035156 9.39293384552002 59.46406555175781 C 11.75077629089355 53.8895149230957 14.66922378540039 48.51272201538086 18.06722259521484 43.48301315307617 C 21.43330192565918 38.50056457519531 25.2990665435791 33.81522369384766 29.55714416503906 29.55714416503906 C 33.81522369384766 25.2990665435791 38.50056457519531 21.43330192565918 43.48301315307617 18.06722259521484 C 48.51272201538086 14.66922378540039 53.8895149230957 11.75077629089355 59.46406555175781 9.39293384552002 C 65.14125061035156 6.991697311401367 71.08230590820312 5.147486686706543 77.12225341796875 3.911539316177368 C 83.32072448730469 2.643144607543945 89.70104217529297 2.000013113021851 96.08596038818359 2.000013113021851 C 102.4708786010742 2.000013113021851 108.8511962890625 2.643144607543945 115.0496978759766 3.911539316177368 C 121.0896148681641 5.147486686706543 127.0306701660156 6.991697311401367 132.7078552246094 9.39293384552002 C 138.2824096679688 11.75077629089355 143.6592254638672 14.66922378540039 148.6889343261719 18.06722259521484 C 153.67138671875 21.43330192565918 158.3567047119141 25.2990665435791 162.6148071289062 29.55714416503906 C 166.8728790283203 33.81522369384766 170.7386474609375 38.50056457519531 174.1047210693359 43.48301315307617 C 177.5027160644531 48.51272201538086 180.4211730957031 53.8895149230957 182.7790069580078 59.46406555175781 C 185.1802520751953 65.14125061035156 187.0244598388672 71.08230590820312 188.2604064941406 77.12225341796875 C 189.52880859375 83.32072448730469 190.1719360351562 89.70104217529297 190.1719360351562 96.08596038818359 C 190.1719360351562 102.4708786010742 189.52880859375 108.8511962890625 188.2604064941406 115.0496978759766 C 187.0244598388672 121.0896148681641 185.1802520751953 127.0306701660156 182.7790069580078 132.7078552246094 C 180.4211730957031 138.2824096679688 177.5027160644531 143.6592254638672 174.1047210693359 148.6889343261719 C 170.7386474609375 153.67138671875 166.8728790283203 158.3567047119141 162.6148071289062 162.6148071289062 C 158.3567047119141 166.8728790283203 153.67138671875 170.7386474609375 148.6889343261719 174.1047210693359 C 143.6592254638672 177.5027160644531 138.2824096679688 180.4211730957031 132.7078552246094 182.7790069580078 C 127.0306701660156 185.1802520751953 121.0896148681641 187.0244598388672 115.0496978759766 188.2604064941406 C 108.8511962890625 189.52880859375 102.4708786010742 190.1719360351562 96.08596038818359 190.1719360351562 Z" stroke="none"/>
      <path d="M 96.08596038818359 3.999984741210938 C 89.83543395996094 3.999984741210938 83.59001922607422 4.62945556640625 77.52318572998047 5.87091064453125 C 71.61260223388672 7.080398559570312 65.79876708984375 8.885101318359375 60.24317932128906 11.23493957519531 C 54.78756713867188 13.54246520996094 49.52531433105469 16.39874267578125 44.60260009765625 19.72445678710938 C 39.72566223144531 23.01927185058594 35.13943481445312 26.80326843261719 30.97134399414062 30.97134399414062 C 26.80326843261719 35.13943481445312 23.01927185058594 39.72566223144531 19.72445678710938 44.60260009765625 C 16.39874267578125 49.52531433105469 13.54246520996094 54.78756713867188 11.23493957519531 60.24317932128906 C 8.885101318359375 65.79876708984375 7.080398559570312 71.61260223388672 5.87091064453125 77.52318572998047 C 4.62945556640625 83.59001922607422 3.999984741210938 89.83543395996094 3.999984741210938 96.08596038818359 C 3.999984741210938 102.3364868164062 4.62945556640625 108.581901550293 5.87091064453125 114.6487350463867 C 7.080398559570312 120.5593185424805 8.885101318359375 126.3731536865234 11.23493957519531 131.9287414550781 C 13.54246520996094 137.3843536376953 16.39874267578125 142.6466064453125 19.72445678710938 147.5692901611328 C 23.01927185058594 152.4462585449219 26.80326843261719 157.0324859619141 30.97134399414062 161.2005462646484 C 35.13943481445312 165.3686218261719 39.72566223144531 169.1526336669922 44.60260009765625 172.4474334716797 C 49.52531433105469 175.7731628417969 54.78756713867188 178.6294555664062 60.24317932128906 180.9369812011719 C 65.79876708984375 183.2867889404297 71.61260223388672 185.0915222167969 77.52318572998047 186.3009948730469 C 83.59001922607422 187.5424346923828 89.83543395996094 188.1719055175781 96.08596038818359 188.1719055175781 C 102.3364868164062 188.1719055175781 108.581901550293 187.5424346923828 114.6487350463867 186.3009948730469 C 120.5593185424805 185.0915222167969 126.3731536865234 183.2867889404297 131.9287414550781 180.9369812011719 C 137.3843536376953 178.6294555664062 142.6466064453125 175.7731628417969 147.5692901611328 172.4474334716797 C 152.4462585449219 169.1526336669922 157.0324859619141 165.3686218261719 161.2005462646484 161.2005462646484 C 165.3686218261719 157.0324859619141 169.1526336669922 152.4462585449219 172.4474334716797 147.5692901611328 C 175.7731628417969 142.6466064453125 178.6294555664062 137.3843536376953 180.9369812011719 131.9287414550781 C 183.2867889404297 126.3731536865234 185.0915222167969 120.5593185424805 186.3009948730469 114.6487350463867 C 187.5424346923828 108.581901550293 188.1719055175781 102.3364868164062 188.1719055175781 96.08596038818359 C 188.1719055175781 89.83543395996094 187.5424346923828 83.59001922607422 186.3009948730469 77.52318572998047 C 185.0915222167969 71.61260223388672 183.2867889404297 65.79876708984375 180.9369812011719 60.24317932128906 C 178.6294555664062 54.78756713867188 175.7731628417969 49.52531433105469 172.4474334716797 44.60260009765625 C 169.1526336669922 39.72566223144531 165.3686218261719 35.13943481445312 161.2005462646484 30.97134399414062 C 157.0324859619141 26.80326843261719 152.4462585449219 23.01927185058594 147.5692901611328 19.72445678710938 C 142.6466064453125 16.39874267578125 137.3843536376953 13.54246520996094 131.9287414550781 11.23493957519531 C 126.3731536865234 8.885101318359375 120.5593185424805 7.080398559570312 114.6487350463867 5.87091064453125 C 108.581901550293 4.62945556640625 102.3364868164062 3.999984741210938 96.08596038818359 3.999984741210938 M 96.08596038818359 -1.52587890625e-05 C 149.1527709960938 -1.52587890625e-05 192.1719055175781 43.01914978027344 192.1719055175781 96.08596038818359 C 192.1719055175781 149.1527709960938 149.1527709960938 192.1719055175781 96.08596038818359 192.1719055175781 C 43.01914978027344 192.1719055175781 -1.52587890625e-05 149.1527709960938 -1.52587890625e-05 96.08596038818359 C -1.52587890625e-05 43.01914978027344 43.01914978027344 -1.52587890625e-05 96.08596038818359 -1.52587890625e-05 Z" stroke="none" fill="#cbcbcb"/>
    </g>
    <ellipse id="Ellipse_2" data-name="Ellipse 2" cx="77.5" cy="77" rx="77.5" ry="77" transform="translate(153 2325)"/>
    <g id="_001-programming" data-name="001-programming" transform="translate(201.865 2378.326)">
      <g id="Group_19" data-name="Group 19" transform="translate(0 0)">
        <g id="Group_18" data-name="Group 18" transform="translate(0 0)">
          <path id="Path_86" data-name="Path 86" d="M53.087,28.338H2.7A2.7,2.7,0,0,0,0,31.04V62.649a2.7,2.7,0,0,0,2.7,2.7H21.545v6.122H14.213a2.5,2.5,0,0,0,0,5H41.576a2.5,2.5,0,1,0,0-5H34.243V65.351H53.087a2.7,2.7,0,0,0,2.7-2.7V31.04A2.7,2.7,0,0,0,53.087,28.338ZM51.736,61.3H4.052V32.39H51.736Z" transform="translate(0 -28.338)" fill="#fff"/>
          <path id="Path_87" data-name="Path 87" d="M88.457,130.3l8.522,3.963a1.656,1.656,0,0,0,2.354-1.5v-.043a1.662,1.662,0,0,0-.959-1.5l-5.33-2.476,5.33-2.477a1.662,1.662,0,0,0,.958-1.5v-.043a1.653,1.653,0,0,0-1.658-1.655,1.665,1.665,0,0,0-.7.153l-8.521,3.962a1.662,1.662,0,0,0-.958,1.5v.119A1.663,1.663,0,0,0,88.457,130.3Z" transform="translate(-75.679 -110.265)" fill="#fff"/>
          <path id="Path_88" data-name="Path 88" d="M173.624,108.164a1.662,1.662,0,0,0,1.337.679H175a1.65,1.65,0,0,0,1.577-1.15L182.194,90.3a1.656,1.656,0,0,0-1.577-2.162h-.042A1.652,1.652,0,0,0,179,89.288l-5.614,17.395A1.665,1.665,0,0,0,173.624,108.164Z" transform="translate(-149.895 -80.06)" fill="#fff"/>
          <path id="Path_89" data-name="Path 89" d="M237.9,124.756a1.664,1.664,0,0,0,.958,1.5l5.33,2.476-5.33,2.476a1.662,1.662,0,0,0-.959,1.5v.044a1.657,1.657,0,0,0,2.355,1.5l8.521-3.963a1.663,1.663,0,0,0,.958-1.5v-.119a1.662,1.662,0,0,0-.958-1.5l-8.521-3.963a1.657,1.657,0,0,0-2.354,1.5v.043Z" transform="translate(-205.759 -110.263)" fill="#fff"/>
        </g>
      </g>
    </g>
  </g>
</svg>
