<svg xmlns="http://www.w3.org/2000/svg" width="2472.863" height="146.921" viewBox="0 0 2472.863 146.921">
  <path id="Path_99" data-name="Path 99" d="M79.4-142.308c-44.22,0-76.38,30.15-76.38,71.556C3.015-28.743,34.371,2.01,77.586,2.01c21.708,0,45.627-11.055,61.3-28.14L111.957-54.873C102.711-45.024,90.048-38.793,80-38.793c-16.884,0-29.145-13.668-29.145-32.562,0-18.693,12.261-32.16,29.145-32.16,10.854,0,23.517,7.437,31.959,18.894l26.934-31.959C124.419-132.258,100.9-142.308,79.4-142.308ZM242.205-19.9,249.24,0h49.647L241.6-140.9H193.764L134.268,0h47.838l7.236-19.9ZM230.748-53.265H201.4L216.276-94.47ZM466.923,0V-140.9H417.678L386.925-67.335,356.172-140.9H306.927V0h40.6V-77.184l24.12,63.516H402.2l24.12-63.516V0Zm20.1-140.9V0h46.632V-36.582h19.5c36.582,0,57.687-19.7,57.687-53.868,0-32.16-21.1-50.451-57.687-50.451Zm46.632,35.376H550.74c10.05,0,15.879,6.03,15.879,16.482,0,10.854-5.829,17.085-15.879,17.085H533.655ZM758.172-140.9H711.54v81.2c0,14.07-8.844,22.914-20.3,22.914-11.658,0-21.708-9.045-21.708-22.914v-81.2H622.9v81.2c0,37.386,27.135,61.707,68.139,61.707,40.8,0,67.134-24.321,67.134-61.707Zm79.194-2.01c-36.582,0-60.3,17.688-60.3,45.828,0,49.446,72.963,37.386,72.963,55.677,0,5.025-4.422,7.236-11.256,7.236-14.271,0-39.195-9.849-53.667-21.909L767.82-21.1C786.513-6.834,813.849,1.407,838.371,1.407c31.758,0,59.295-13.869,59.295-45.225,0-51.054-72.963-40-72.963-57.687,0-4.221,3.417-5.829,8.643-5.829,12.261,0,34.17,8.643,48.441,16.482l16.884-35.376C882.792-136.278,859.677-142.911,837.366-142.911ZM1047.612-19.9,1054.647,0h49.647l-57.285-140.9H999.171L939.675,0h47.838l7.236-19.9Zm-11.457-33.366h-29.346l14.874-41.205ZM1272.33,0V-140.9h-49.245l-30.753,73.566L1161.579-140.9h-49.245V0h40.6V-77.184l24.12,63.516h30.552l24.12-63.516V0Zm20.1-140.9V0H1367.2c34.371,0,56.682-15.477,56.682-39.6,0-17.688-11.055-31.758-27.939-35.577,14.472-4.422,23.718-16.281,23.718-30.15,0-21.507-21.909-35.577-55.878-35.577Zm46.431,34.17h22.311c6.432,0,10.653,3.819,10.653,9.849,0,6.231-4.221,10.251-10.653,10.251h-22.311Zm0,51.054h22.311c8.643,0,14.271,4.02,14.271,10.251,0,6.834-5.628,11.256-14.271,11.256h-22.311ZM1533.831-19.9,1540.866,0h49.647l-57.285-140.9H1485.39L1425.894,0h47.838l7.236-19.9Zm-11.457-33.366h-29.346L1507.9-94.47Zm137.283-89.646c-36.582,0-60.3,17.688-60.3,45.828,0,49.446,72.963,37.386,72.963,55.677,0,5.025-4.422,7.236-11.256,7.236-14.271,0-39.2-9.849-53.667-21.909L1590.111-21.1C1608.8-6.834,1636.14,1.407,1660.662,1.407c31.758,0,59.295-13.869,59.295-45.225,0-51.054-72.963-40-72.963-57.687,0-4.221,3.417-5.829,8.643-5.829,12.261,0,34.17,8.643,48.441,16.482l16.884-35.376C1705.083-136.278,1681.968-142.911,1659.657-142.911Zm133.464,0c-36.582,0-60.3,17.688-60.3,45.828,0,49.446,72.963,37.386,72.963,55.677,0,5.025-4.422,7.236-11.256,7.236-14.271,0-39.2-9.849-53.667-21.909L1723.575-21.1c18.693,14.271,46.029,22.512,70.551,22.512,31.758,0,59.3-13.869,59.3-45.225,0-51.054-72.963-40-72.963-57.687,0-4.221,3.417-5.829,8.643-5.829,12.261,0,34.17,8.643,48.441,16.482l16.884-35.376C1838.547-136.278,1815.432-142.911,1793.121-142.911ZM1961.358-19.9,1968.393,0h49.647l-57.285-140.9h-47.838L1853.421,0h47.838l7.236-19.9ZM1949.9-53.265h-29.346l14.874-41.205ZM2026.08-140.9V0h61.1c47.637,0,78.39-27.738,78.39-70.551s-30.15-70.35-76.581-70.35Zm46.632,36.18h15.276c18.09,0,29.949,13.668,29.949,34.572,0,20.7-10.854,33.969-27.738,33.969h-17.487Zm176.277-37.587c-44.823,0-77.385,29.949-77.385,71.757,0,42.009,32.562,72.561,77.385,72.561s77.385-30.753,77.385-72.561C2326.374-112.158,2293.812-142.308,2248.989-142.308Zm.6,38.793c16.08,0,28.944,13.869,28.944,33.165s-12.864,33.567-28.944,33.567-30.15-14.271-30.15-33.567S2233.311-103.515,2249.592-103.515ZM2420.442,0H2473.1l-27.738-45.828c14.472-8.844,22.311-24.12,22.311-44.622,0-32.16-21.909-50.451-60.1-50.451h-68.139V0h46.632V-36.582h17.487Zm-34.371-71.958v-33.567h21.507c10.05,0,15.879,6.03,15.879,16.482,0,10.854-5.829,17.085-15.879,17.085Z" transform="translate(-2.015 143.911)" fill="#fff" stroke="#000" stroke-width="2" opacity="0.212"/>
</svg>
