<svg xmlns="http://www.w3.org/2000/svg" width="2451.19" height="145.921" viewBox="0 0 2451.19 145.921">
  <path id="Path_101" data-name="Path 101" d="M56.682,0V-140.9H10.05V0ZM213.663,0V-140.9h-42.21v72.36L115.776-140.9H76.782V0h42.411V-71.958L174.669,0ZM324.816-74.169v32.763c-6.834,2.814-13.668,4.623-18.492,4.623-18.291,0-31.758-14.07-31.758-33.567,0-19.1,13.266-33.165,31.356-33.165,11.658,0,25.326,5.829,34.773,14.874L367.026-120.6c-15.075-13.266-38.994-21.708-60.9-21.708-46.029,0-79.395,30.351-79.395,71.958,0,41.808,32.16,72.36,76.38,72.36,20.1,0,46.029-7.638,61.707-18.09V-74.169ZM463.1,0h52.662L488.028-45.828c14.472-8.844,22.311-24.12,22.311-44.622,0-32.16-21.909-50.451-60.1-50.451H382.1V0h46.632V-36.582H446.22ZM428.733-71.958v-33.567H450.24c10.05,0,15.879,6.03,15.879,16.482,0,10.854-5.829,17.085-15.879,17.085Zm218.286-33.567V-140.9H527.826V0h121V-35.376h-74.37V-52.863h65.928V-88.239H574.458v-17.286Zm80.6-37.386c-36.582,0-60.3,17.688-60.3,45.828,0,49.446,72.963,37.386,72.963,55.677,0,5.025-4.422,7.236-11.256,7.236-14.271,0-39.195-9.849-53.667-21.909L658.074-21.1C676.767-6.834,704.1,1.407,728.625,1.407c31.758,0,59.295-13.869,59.295-45.225,0-51.054-72.963-40-72.963-57.687,0-4.221,3.417-5.829,8.643-5.829,12.261,0,34.17,8.643,48.441,16.482l16.884-35.376C773.046-136.278,749.931-142.911,727.62-142.911Zm133.464,0c-36.582,0-60.3,17.688-60.3,45.828,0,49.446,72.963,37.386,72.963,55.677,0,5.025-4.422,7.236-11.256,7.236-14.271,0-39.195-9.849-53.667-21.909L791.538-21.1C810.231-6.834,837.567,1.407,862.089,1.407c31.758,0,59.295-13.869,59.295-45.225,0-51.054-72.963-40-72.963-57.687,0-4.221,3.417-5.829,8.643-5.829,12.261,0,34.17,8.643,48.441,16.482l16.884-35.376C906.51-136.278,883.4-142.911,861.084-142.911ZM980.076,0V-140.9H933.444V0Zm110.751,0,53.868-140.9h-47.637l-28.944,92.46-29.145-92.46H989.121L1042.587,0Zm182.106-105.525V-140.9H1153.74V0h121V-35.376h-74.37V-52.863H1266.3V-88.239h-65.928v-17.286Zm147.534,61.707,50.451-97.083h-46.431l-27.336,54.27L1368.81-140.9h-46.431l51.456,98.088V0h46.632ZM1562.775-19.9,1569.81,0h49.647l-57.285-140.9h-47.838L1454.838,0h47.838l7.236-19.9Zm-11.457-33.366h-29.346l14.874-41.205ZM1627.5-140.9V0h74.772c34.371,0,56.682-15.477,56.682-39.6,0-17.688-11.055-31.758-27.939-35.577,14.472-4.422,23.718-16.281,23.718-30.15,0-21.507-21.909-35.577-55.878-35.577Zm46.431,34.17h22.311c6.432,0,10.653,3.819,10.653,9.849,0,6.231-4.221,10.251-10.653,10.251h-22.311Zm0,51.054h22.311c8.643,0,14.271,4.02,14.271,10.251,0,6.834-5.628,11.256-14.271,11.256h-22.311ZM1868.9-19.9,1875.933,0h49.647l-57.285-140.9h-47.838L1760.961,0H1808.8l7.236-19.9Zm-11.457-33.366h-29.346l14.874-41.205Zm177.885-50.853V-140.9H1908.495v36.783h40V0h46.632V-104.118Zm130.248-1.407V-140.9H2046.381V0h121V-35.376h-74.37V-52.863h65.928V-88.239h-65.928v-17.286Zm88.842-36.783c-44.22,0-76.38,30.15-76.38,71.556,0,42.009,31.356,72.762,74.571,72.762,21.708,0,45.627-11.055,61.305-28.14l-26.934-28.743c-9.246,9.849-21.909,16.08-31.959,16.08-16.884,0-29.145-13.668-29.145-32.562,0-18.693,12.261-32.16,29.145-32.16,10.854,0,23.517,7.437,31.959,18.894l26.934-31.959C2299.44-132.258,2275.923-142.308,2254.416-142.308ZM2460.24,0V-140.9h-46.632v54.672h-43.617V-140.9h-46.632V0h46.632V-50.853h43.617V0Z" transform="translate(-9.55 143.411)" fill="#fff" stroke="#000" stroke-width="1" opacity="0.212"/>
</svg>
