<svg xmlns="http://www.w3.org/2000/svg" width="142.109" height="52.359" viewBox="0 0 142.109 52.359">
  <g id="Group_5" data-name="Group 5" transform="translate(-285.8 -717.834)">
    <rect id="Rectangle_2" data-name="Rectangle 2" width="45.241" height="12.323" transform="translate(344.247 757.869)"/>
    <g id="Group_1" data-name="Group 1" transform="translate(347.854 761.287)">
      <path id="Path_3" data-name="Path 3" d="M1529.6,1590.4h1.023l1.4,2.18,1.387-2.18h1.023l-1.966,2.973v2.11h-.893v-2.11Z" transform="translate(-1529.6 -1590.32)" fill="#fff"/>
      <path id="Path_4" data-name="Path 4" d="M1617,1595.484l2-5.084h1.113l2,5.084H1621.1l-.374-.973h-2.33l-.374.973Zm1.642-1.761h1.831l-.918-2.425Z" transform="translate(-1612.639 -1590.32)" fill="#fff"/>
      <path id="Path_5" data-name="Path 5" d="M1730.6,1595.484V1590.4h2.5a1.472,1.472,0,0,1,1.063.369,1.217,1.217,0,0,1,.384.928,1.184,1.184,0,0,1-.254.773,1.057,1.057,0,0,1-.628.389,1.086,1.086,0,0,1,.7.424,1.292,1.292,0,0,1,.284.828,1.322,1.322,0,0,1-.389.988,1.491,1.491,0,0,1-1.088.384Zm.893-2.983h1.427a.727.727,0,0,0,.529-.185.612.612,0,0,0,.19-.474.65.65,0,0,0-.19-.479.727.727,0,0,0-.529-.185h-1.427Zm0,2.2h1.462a.83.83,0,0,0,.574-.189.659.659,0,0,0,.2-.519.688.688,0,0,0-.2-.5.781.781,0,0,0-.574-.2h-1.462Z" transform="translate(-1720.572 -1590.32)" fill="#fff"/>
      <path id="Path_6" data-name="Path 6" d="M1818.9,1595.484l2-5.084h1.112l2,5.084H1823l-.374-.973h-2.33l-.374.973Zm1.641-1.761h1.831l-.918-2.425Z" transform="translate(-1804.466 -1590.32)" fill="#fff"/>
      <path id="Path_7" data-name="Path 7" d="M1916,1591.183v-.783h3.971v.783h-1.536v4.3h-.893v-4.3Z" transform="translate(-1896.722 -1590.32)" fill="#fff"/>
      <path id="Path_8" data-name="Path 8" d="M2010.7,1595.484V1590.4h3.487v.783h-2.595v1.317h2.54v.783h-2.54v1.412h2.595v.783H2010.7Z" transform="translate(-1986.698 -1590.32)" fill="#fff"/>
      <path id="Path_9" data-name="Path 9" d="M2094.6,1592.5a2.709,2.709,0,0,1-.2-1.068,2.805,2.805,0,0,1,.2-1.068,2.411,2.411,0,0,1,.564-.833,2.686,2.686,0,0,1,.848-.534,2.832,2.832,0,0,1,1.052-.195,2.276,2.276,0,0,1,2.046,1.142l-.764.389a1.439,1.439,0,0,0-.534-.534,1.408,1.408,0,0,0-.743-.21,1.682,1.682,0,0,0-1.257.519,2.013,2.013,0,0,0,0,2.654,1.663,1.663,0,0,0,1.257.519,1.454,1.454,0,0,0,.749-.2,1.422,1.422,0,0,0,.534-.539l.763.389a2.3,2.3,0,0,1-2.046,1.142,2.839,2.839,0,0,1-1.053-.195,2.551,2.551,0,0,1-.848-.534A2.438,2.438,0,0,1,2094.6,1592.5Z" transform="translate(-2066.222 -1588.8)" fill="#fff"/>
      <path id="Path_10" data-name="Path 10" d="M2203.1,1595.484V1590.4h.893v2.081h2.65V1590.4h.893v5.084h-.893v-2.22h-2.65v2.22Z" transform="translate(-2169.498 -1590.32)" fill="#fff"/>
    </g>
    <path id="Path_11" data-name="Path 11" d="M537.163,870h1.3c.015.015.025.045.04.05a4.089,4.089,0,0,1,.778.045c.16.04.339-.025.5.055a5.908,5.908,0,0,1,.883.1c.06.005.12.035.18.045a1.211,1.211,0,0,1,.195.01c.249.1.519.1.768.19.17.055.349.075.514.14s.339.11.509.16a13.2,13.2,0,0,1,1.417.549,2.728,2.728,0,0,0,.589.264c.21.175.479.249.708.4.2.14.429.254.634.389.3.2.6.409.888.624.274.2.539.414.808.629.21.165.4.359.6.539a2.318,2.318,0,0,0,.489-.045,1.059,1.059,0,0,1,.429.03,1.794,1.794,0,0,1,.514.15,2.343,2.343,0,0,1,.883.768,1.148,1.148,0,0,0,.339.354c.05.025.09.06.14.085a1.278,1.278,0,0,1,.469.454,3.507,3.507,0,0,1,.235.5,3.007,3.007,0,0,1,.065.369,1.467,1.467,0,0,1,.01.444c-.005.155.06.294.055.454s-.055.319-.055.479a3.971,3.971,0,0,0,.045,1c.03.11.045.229.08.339.1.329.245.649.339.983.075.264.17.529.24.8s.13.549.2.818.1.569.18.843a2.636,2.636,0,0,1,.05.354c.02.125.035.254.05.379.035.3.04.6.055.9a.308.308,0,0,0,.01.095c0,.01.025.01.04.02v1.4c-.015.015-.05.025-.05.04a2.6,2.6,0,0,1-.05.679c-.035.125.03.259-.03.384s-.005.264-.06.4a2.174,2.174,0,0,0-.06.449c-.025.155-.065.3-.1.459a3.945,3.945,0,0,1-.11.5c-.11.324-.18.654-.289.978s-.224.639-.349.953c-.135.334-.269.668-.424,1-.2.424-.419.843-.649,1.252a8.658,8.658,0,0,0-.494,1.043c-.1.259-.21.514-.319.763-.13.289-.254.579-.409.853-.115.2-.22.409-.334.609a6.635,6.635,0,0,1-1.068,1.4,3.969,3.969,0,0,1-.773.669,2.208,2.208,0,0,1-.718.314,2.608,2.608,0,0,1-.519.075c-.075-.005-.15-.035-.229-.045s-.165.03-.229-.05a3.921,3.921,0,0,0-.594.01,1.433,1.433,0,0,0-.309.085c-.1.045-.214.085-.319.135-.3.14-.6.284-.9.419-.279.13-.569.235-.858.339a7.254,7.254,0,0,1-1.4.4c-.06.1-.18.025-.264.09s-.195.04-.3.06a2.506,2.506,0,0,0-.279.05c-.115.035-.249.02-.349.06-.12.045-.245.045-.364.08a1.778,1.778,0,0,1-.4.05,7.187,7.187,0,0,1-.928.06.324.324,0,0,0-.12.01c-.01,0-.01.025-.02.04h-1.447c-.005-.015-.01-.04-.02-.04-.13-.005-.264,0-.394-.01s-.269-.035-.4-.05c-.21-.02-.419-.035-.629-.05-.01,0-.02,0-.025,0-.07-.09-.17-.03-.254-.05a1.048,1.048,0,0,0-.254-.055,1.045,1.045,0,0,1-.349-.055c-.24-.095-.5-.1-.743-.185-.219-.075-.454-.11-.674-.185-.349-.115-.7-.23-1.048-.364-.389-.15-.768-.309-1.147-.484-.3-.14-.589-.3-.883-.464a10.8,10.8,0,0,1-.953-.579,13.981,13.981,0,0,1-1.167-.853c-.339-.284-.693-.554-1.008-.868l-.7-.7a.691.691,0,0,1-.1-.1c-.185-.279-.444-.509-.639-.783-.17-.24-.359-.464-.524-.7s-.334-.489-.484-.748c-.16-.274-.329-.544-.469-.828s-.3-.589-.439-.888a8.843,8.843,0,0,1-.439-1.088c-.13-.414-.269-.823-.374-1.242-.1-.4-.175-.8-.289-1.2-.035-.13,0-.284-.06-.4-.07-.13.015-.279-.09-.389-.04-.314-.095-.624-.145-.938a8.963,8.963,0,0,1-.055-.9.307.307,0,0,0-.01-.095c0-.01-.025-.01-.04-.02v-1.9c.015-.02.045-.04.05-.065a4.077,4.077,0,0,1,.045-.778,1.56,1.56,0,0,0,.005-.374c.01-.12.035-.234.045-.354a2.512,2.512,0,0,1,0-.274c.02-.07.02-.145.04-.214s-.025-.195.01-.269c.09-.19-.015-.4.095-.584a4.259,4.259,0,0,1,.095-.708c.035-.269.1-.524.155-.783a8.887,8.887,0,0,1,.249-.968,10.562,10.562,0,0,1,.449-1.163,5.828,5.828,0,0,1,.5-.918,4.348,4.348,0,0,1,.728-.848,3.418,3.418,0,0,1,.808-.529,2.453,2.453,0,0,1,1.018-.254.815.815,0,0,0,.484-.16,3.8,3.8,0,0,0,.539-.444c.04-.04.08-.085.125-.125.229-.185.459-.369.7-.544.17-.125.339-.259.514-.379.334-.23.674-.454,1.018-.669.329-.2.679-.379,1.013-.569.155-.09.324-.135.484-.22.18-.095.369-.155.544-.249a4.83,4.83,0,0,1,.559-.225,6.915,6.915,0,0,1,.873-.294,3.783,3.783,0,0,1,.933-.215,6.893,6.893,0,0,1,.843-.195c.075-.025.175.01.24-.025a.444.444,0,0,1,.264-.025c.09.005.15-.06.23-.055.319.025.634-.085.953-.05a.461.461,0,0,0,.145-.01C537.153,870.04,537.158,870.015,537.163,870Zm-7.234,7.653a1.14,1.14,0,0,0-.254-.12c-.269-.05-.519-.155-.783-.225a.3.3,0,0,0-.309.035,1.535,1.535,0,0,1-.339.195.661.661,0,0,1-.284.08.8.8,0,0,1-.464-.259,2.637,2.637,0,0,1-.21-.259.138.138,0,0,0-.17-.065,1.9,1.9,0,0,1-.539.135c-.264.04-.514.14-.783.164a1.088,1.088,0,0,0-.264.085,1.57,1.57,0,0,0-.828.793,17.245,17.245,0,0,0-.733,1.567c-.095.245-.18.489-.269.733a6.752,6.752,0,0,0-.224.7c-.09.339-.19.673-.269,1.008a1.712,1.712,0,0,1-.06.4c-.07.13-.02.264-.08.394a1.463,1.463,0,0,0-.055.349c-.02.125-.03.254-.05.379-.03.2-.025.419-.05.629a7.344,7.344,0,0,0-.005,1.048,5.063,5.063,0,0,0,.04,1.028,5.01,5.01,0,0,0,.055.6c.035.1-.025.214.045.334.05.085-.015.224.06.324a2.872,2.872,0,0,0,.1.709c.015.11.04.214.06.324.035.165.1.324.135.494.055.284.165.549.235.828.055.2.14.389.21.589a9.969,9.969,0,0,0,.5,1.187c.125.239.234.484.349.729a5.485,5.485,0,0,0,.409.7c.244.364.489.733.758,1.088a12.861,12.861,0,0,0,1.1,1.287.9.9,0,0,1,.249.294.172.172,0,0,0,.1.1c.08.01.11.07.155.115a11.507,11.507,0,0,0,1.033.938c.334.26.664.514,1.013.753a10.543,10.543,0,0,0,1.172.718,13.405,13.405,0,0,0,1.721.788c.224.08.444.165.664.259a5.442,5.442,0,0,1,.678.23c.484.065.933.264,1.422.3a6.072,6.072,0,0,0,.788.145c.135.035.284.02.429.045a6.075,6.075,0,0,0,.8.055c.2.01.4,0,.6,0,.249,0,.5.005.748,0a2.978,2.978,0,0,0,.728-.045c.135-.035.284-.015.429-.05s.3-.025.454-.05c.21-.03.424-.06.629-.11.294-.07.594-.12.893-.195.279-.07.549-.165.828-.234.155-.035.3-.125.454-.165a7.641,7.641,0,0,0,.988-.384c.364-.155.714-.359,1.088-.554a1.178,1.178,0,0,0-.185-.195,3.812,3.812,0,0,1-.679-.584c-.214-.225-.439-.444-.634-.689-.22-.274-.424-.569-.619-.863s-.374-.594-.549-.9c-.165-.289-.3-.589-.464-.878-.06-.11-.115-.24-.264-.254a1.244,1.244,0,0,1-.115.155c-.115.1-.24.195-.349.3a1.769,1.769,0,0,1-.589.384,3.444,3.444,0,0,1-1.118.254c-.14,0-.284-.005-.424,0a3.3,3.3,0,0,1-.379.045c-.165,0-.329-.04-.509-.06,0-.05.015-.11-.005-.145a.262.262,0,0,1,0-.314c.01-.01,0-.045-.01-.065a2.3,2.3,0,0,0-.349-.554,2.54,2.54,0,0,1-.279-.334,2.066,2.066,0,0,1-.195-.394c-.035-.085-.025-.189-.06-.274a.51.51,0,0,1-.045-.254.655.655,0,0,0-.07-.294,4.18,4.18,0,0,0-.289-.529c-.03-.065-.11-.1-.14-.165a1.423,1.423,0,0,0-.3-.429v-.319a1.7,1.7,0,0,1,.045-.279,1.113,1.113,0,0,1,.145-.439c.085-.14.1-.319.259-.414.03-.015.035-.065.05-.1a.688.688,0,0,0,.04-.135c0-.035-.04-.07-.035-.1s.08-.065.03-.125c-.005-.005-.015-.01-.015-.02-.01-.04.035-.08-.015-.13-.035-.035-.035-.1-.065-.145-.055-.085-.125-.165-.04-.269.01-.01,0-.035,0-.05-.05-.16-.1-.324-.16-.484-.04-.11-.1-.21-.135-.319a.354.354,0,0,0-.055-.125,4.559,4.559,0,0,0-.444-.539c-.115-.11-.23-.22-.334-.334a.571.571,0,0,1-.17-.429,3.556,3.556,0,0,1,.13-.649,2.163,2.163,0,0,0,.07-.589l-.324-.324a1.393,1.393,0,0,0-.354.025.663.663,0,0,1-.369-.015c-.165-.03-.185-.16-.244-.264-.01-.02-.03-.04-.04-.06-.1-.249-.135-.274-.379-.334-.07-.115-.14.015-.21,0a1.143,1.143,0,0,0-.429.055c-.14.02-.274.1-.414.135-.175.035-.329.13-.5.175a.364.364,0,0,1-.314-.015.4.4,0,0,0-.229-.055.582.582,0,0,1-.264-.015c-.115-.055-.225-.01-.339-.03-.1.11-.254.005-.369.07s-.259.005-.374.035c-.135-.12-.269-.229-.394-.344s-.225-.225-.339-.334c-.06-.06-.17-.1-.19-.165-.035-.11-.14-.1-.195-.165s-.13-.1-.165-.18a4.249,4.249,0,0,0-.234-.479c-.12-.2-.21-.429-.319-.644a1.757,1.757,0,0,0-.324-.439c-.1.01-.085-.065-.075-.115a.893.893,0,0,0,.005-.559.19.19,0,0,1,.045-.2.547.547,0,0,0,.1-.155,3.947,3.947,0,0,0,.289-.778.43.43,0,0,0-.04-.349c.095-.1.03-.234.045-.354,0-.015-.03-.04-.045-.055-.08-.075-.05-.15-.02-.24a1.331,1.331,0,0,1,.21-.314,4.023,4.023,0,0,0,.244-.349,2.638,2.638,0,0,1,.289-.329c.045-.055.115-.115.115-.175a.293.293,0,0,1,.19-.264C529.924,877.913,529.934,877.793,529.929,877.653Zm13.126,14.179a4.713,4.713,0,0,0,.05.644.684.684,0,0,1-.394.624,1.059,1.059,0,0,1-.18.05c-.19.07-.225.175-.135.374a.978.978,0,0,0,.309.329,4.584,4.584,0,0,0,.634.344,4.039,4.039,0,0,0,.449.19,1.169,1.169,0,0,1,.165-.115,1.6,1.6,0,0,1,.379-.17.574.574,0,0,1,.5.155.872.872,0,0,1,.264.414.4.4,0,0,0,.334.269,6.551,6.551,0,0,0,.883.1A2.484,2.484,0,0,0,547.2,895a2.261,2.261,0,0,0,.753-.11,4.566,4.566,0,0,0,1.108-.389,4.017,4.017,0,0,0,2.045-1.876c.225-.449.459-.888.649-1.352.045-.115.095-.229.14-.344.08-.2.135-.414.224-.6a6.074,6.074,0,0,0,.314-.968,3.725,3.725,0,0,0,.21-.963,3.274,3.274,0,0,0,.145-.663c.03-.11.03-.235.055-.354s-.015-.26.055-.379a5.117,5.117,0,0,1,.05-.728c.005-.284,0-.564,0-.848s.005-.564,0-.848-.03-.569-.05-.853c0-.025.01-.06,0-.075-.085-.075-.035-.17-.05-.255s-.04-.17-.05-.254a2.089,2.089,0,0,0-.06-.474c-.095-.259-.11-.534-.185-.793-.065-.24-.13-.479-.2-.718-.12-.4-.249-.793-.4-1.182-.1-.265-.2-.529-.329-.788-.185-.389-.4-.768-.594-1.152a7.208,7.208,0,0,0-.549-.9l-.689-.988c-.065-.095-.14-.185-.2-.264a11.046,11.046,0,0,0-2.684,1.7c0,.095.005.18,0,.264a1.892,1.892,0,0,1-.05.229.612.612,0,0,1-.569.494,2.989,2.989,0,0,1-.424,0,.921.921,0,0,1-.185-.05c-.14.16-.294.3-.424.469-.209.264-.454.494-.683.743-.2.22-.414.444-.619.669a.123.123,0,0,0,0,.19c.1.115.2.229.3.349a.936.936,0,0,1,.1.18c.015.025,0,.07.02.09a3.133,3.133,0,0,0,.409.4,3.448,3.448,0,0,1,.449.359c.12.125.245.249.379.379v.21c.015-.01.03-.025.045-.035.085.1.17.195.259.294a1.247,1.247,0,0,1,.14-.075,4.563,4.563,0,0,1,.494-.19c.175-.045.3-.175.489-.2a.645.645,0,0,0,.379-.274c.065.04.12.075.18.115a4.285,4.285,0,0,1-.04.509,2.686,2.686,0,0,1-.15.589.924.924,0,0,0-.06.2,3.461,3.461,0,0,1-.544,1.247,4.476,4.476,0,0,1-.379.494,1.165,1.165,0,0,1-.354.344.234.234,0,0,0-.07.07c-.15.254-.374.454-.549.693-.13.18-.269.354-.4.534a4.1,4.1,0,0,0-.464.878.292.292,0,0,0,.02.334c.05.05.03.1.045.155.03.1-.03.185-.015.284a1.79,1.79,0,0,0,.214.639.25.25,0,0,1,.025.244.783.783,0,0,0-.07.319c0,.17-.06.344.045.5.01.015-.005.045-.02.065a3.2,3.2,0,0,1-.17.279c-.11.155-.279.234-.389.379a.156.156,0,0,1-.055.045,2.043,2.043,0,0,0-.4.244,3.912,3.912,0,0,0-.6.469A.937.937,0,0,1,543.055,891.832Zm-4.39-15c.1-.065.219-.135.329-.21.13-.085.269-.035.4-.035a.725.725,0,0,0,.494.195,2.841,2.841,0,0,0,.793.195,3.017,3.017,0,0,0,.379.055.293.293,0,0,0,.2-.05.594.594,0,0,1,.409-.1.533.533,0,0,1,.3.05c.115-.1.25-.03.344-.05.08.11.14.2.2.289a.635.635,0,0,1,.13.494,1.093,1.093,0,0,1-.115.3.214.214,0,0,0,0,.225,3.721,3.721,0,0,0,.339.534,1.537,1.537,0,0,1,.2.314,1.164,1.164,0,0,0,.209.359,3.891,3.891,0,0,1,.294-.419,8.01,8.01,0,0,0,.5-.669c.294-.414.6-.818.923-1.212a4.027,4.027,0,0,0,.264-.314,4.608,4.608,0,0,1,.449-.534,6.846,6.846,0,0,1,.8-.768c.2-.16.389-.339.6-.489.259-.18.519-.354.778-.529.065-.045.135-.095.2-.14a.5.5,0,0,0-.055-.055c-.244-.17-.449-.384-.694-.549-.2-.14-.374-.339-.584-.469-.324-.2-.624-.439-.958-.634-.294-.17-.594-.344-.883-.519a1.263,1.263,0,0,1-.17-.075,1.793,1.793,0,0,0-.5-.25c-.175-.06-.324-.18-.5-.234-.11-.035-.2-.1-.314-.145-.309-.11-.624-.22-.938-.319-.239-.08-.484-.165-.728-.224a6.8,6.8,0,0,0-.783-.16,3.075,3.075,0,0,0-.384-.09c-.135,0-.259-.08-.4-.055-.065.01-.135-.035-.2-.045a1.585,1.585,0,0,1-.22-.01,1.148,1.148,0,0,0-.389-.04c-.155.01-.294-.06-.454-.055-.389.015-.783-.005-1.172.005a7.141,7.141,0,0,0-1.177.04,5.823,5.823,0,0,1-.728.055.169.169,0,0,0-.05,0c-.229.09-.484.05-.713.145-.08.03-.165-.01-.259.045-.07.045-.18.03-.274.055a13.245,13.245,0,0,0-1.3.354c-.25.085-.5.155-.743.254-.349.14-.694.3-1.038.444-.25.1-.474.255-.713.384a2.213,2.213,0,0,0-.269.125c-.309.209-.634.4-.948.6-.2.13-.384.274-.574.424s-.364.314-.559.454a5.41,5.41,0,0,0-.783.693c.04.025.075.065.1.065a.893.893,0,0,1,.279.05,7.367,7.367,0,0,1,1.083.394,8.014,8.014,0,0,1,1.222.659,3.878,3.878,0,0,1,.569.379,3.149,3.149,0,0,0,.374.234.145.145,0,0,0,.155.015,2.162,2.162,0,0,0,.444-.25,1.008,1.008,0,0,0,.289-.249,3.2,3.2,0,0,1,.234-.274,1.194,1.194,0,0,0,.669.249,1.5,1.5,0,0,0,.5-.125c.195-.05.379-.14.574-.175a2.692,2.692,0,0,1,.449-.005c.15-.01.3-.04.454-.045q.374-.015.748,0c.1,0,.195-.08.274-.05a.907.907,0,0,0,.279.045c.09.005.165.095.12.165a.507.507,0,0,0-.035.379.24.24,0,0,1-.05.22c-.04.05-.08.095-.12.14a1,1,0,0,0,.389.244,5.051,5.051,0,0,0,.763.2.589.589,0,0,1,.145.08c-.085.08.02.13.05.17a.3.3,0,0,0,.2.1.877.877,0,0,1,.3.1.756.756,0,0,0,.549.08C538.665,877.124,538.665,876.99,538.665,876.835Zm10.971,17.856c-.269.1-.479.195-.693.274a5.506,5.506,0,0,1-.753.234,1.766,1.766,0,0,1-.509.095c-.055.07-.135.045-.2.05s-.15-.035-.2.045c-.065-.075-.115.025-.18.01a1.128,1.128,0,0,0-.224,0h-.624a.76.76,0,0,1-.19-.02c-.06-.02-.115.015-.175-.025s-.13,0-.195-.01-.135-.04-.2-.045-.155-.025-.229-.04c-.11-.02-.234-.1-.349.01a.727.727,0,0,1-.6.185.436.436,0,0,1-.3-.12.662.662,0,0,1-.155-.234,1.075,1.075,0,0,0-.364-.4c-.234-.175-.509-.269-.748-.424-.155-.1-.324-.18-.479-.284a.444.444,0,0,0-.155-.035,3.3,3.3,0,0,0,.165.529,11.859,11.859,0,0,0,.7,1.257c.13.2.284.384.419.574a10.752,10.752,0,0,0,.993,1.182,5.011,5.011,0,0,0,.379.344,3.048,3.048,0,0,0,.753.514A14,14,0,0,0,549.636,894.691ZM525.5,876.935c.115,0,.2.025.254-.005.13-.085.279-.04.414-.085.175-.055.369-.02.549-.065.12-.03.24-.02.354-.05.14-.04.3-.045.394-.19a.808.808,0,0,1,.224-.18.553.553,0,0,1,.678.035,2.242,2.242,0,0,1,.364.419c.015.02.03.06.045.065a6.142,6.142,0,0,1,.718.254c.279.095.559.165.833.274a.461.461,0,0,0,.474-.07.887.887,0,0,0,.269-.539.255.255,0,0,0-.11-.3c-.16-.1-.309-.214-.469-.314-.274-.18-.544-.374-.828-.524a8.536,8.536,0,0,0-.938-.449,3.39,3.39,0,0,0-.933-.269c-.12-.1-.274-.02-.414-.09a.177.177,0,0,0-.264.125c-.015.055-.09.095-.135.145-.14.14-.294.274-.419.424-.185.219-.344.459-.534.673-.15.175-.269.369-.4.559C525.6,876.815,525.558,876.86,525.5,876.935Zm23.8-1.412c-.279-.259-.544-.509-.808-.753-.11-.1-.115-.1-.274-.03a5.489,5.489,0,0,0-.938.574c-.329.24-.594.544-.918.788a3.525,3.525,0,0,0-.344.374c-.324.339-.624.7-.918,1.068-.229.284-.449.579-.664.873-.17.229-.329.459-.494.693a3.405,3.405,0,0,1-.279.384.47.47,0,0,0-.07.244c-.01.095.03.13.145.145a.281.281,0,0,0,.065,0c.444-.424.883-.848,1.327-1.267.1-.1.18-.229.329-.289a.145.145,0,0,0,.05-.13c-.04-.07.045-.1.025-.17a.453.453,0,0,1,0-.2.617.617,0,0,1,.3-.469.879.879,0,0,1,.319-.075q.187.008.374,0a.214.214,0,0,0,.11-.03l1.347-.9c.254-.17.514-.329.768-.5A5.9,5.9,0,0,1,549.3,875.523Zm-22.665-.634c-.09,0-.15-.015-.165.005a.171.171,0,0,1-.16.045,1.237,1.237,0,0,0-.589.2,1.642,1.642,0,0,0-.539.384c-.269.12-.364.409-.579.579-.17.294-.364.574-.514.883a4.533,4.533,0,0,0-.324.813,2.592,2.592,0,0,0-.175.778c.005.06-.085.12-.025.2C524.581,877.5,525.588,876.216,526.636,874.889Zm19.373,23.618a1.782,1.782,0,0,0,.294.08,1.827,1.827,0,0,0,1-.175,3.729,3.729,0,0,0,.828-.589,4.846,4.846,0,0,0,.534-.574c.145-.195.294-.389.424-.6.095-.15.19-.3.274-.459.115-.219.215-.444.324-.664.02-.04.045-.08.065-.125.015-.03.025-.065.04-.095a8.2,8.2,0,0,0-.589.589,6.58,6.58,0,0,1-.609.569c-.214.175-.409.374-.619.559s-.424.374-.649.544c-.209.165-.439.3-.654.459A7.6,7.6,0,0,0,546.009,898.508Zm3.946-22.76c.449.659.878,1.292,1.327,1.951a3.953,3.953,0,0,0-.574-2.021c-.1.02-.22.045-.334.06S550.115,875.727,549.955,875.747Zm-.269-.3.7-.13c0-.035.015-.085,0-.1a3.36,3.36,0,0,0-.514-.484,1.289,1.289,0,0,0-.564-.195.539.539,0,0,0-.4.065C549.157,874.884,549.411,875.159,549.686,875.448Z" transform="translate(-224.796 -144.575)"/>
    <path id="Path_12" data-name="Path 12" d="M995.487,1265c.055.055.125.095.14.15s.025.135.05.2c.04.11.015.245.065.349a.171.171,0,0,1-.015.18,2.59,2.59,0,0,0-.289.848.623.623,0,0,1-.05.155,3.268,3.268,0,0,0-.2.638,1.575,1.575,0,0,0-.115.4c0,.09-.1.17-.16.265-.085.035-.195-.03-.294.045-.06.04-.319-.07-.354-.14a.691.691,0,0,1-.055-.2c-.02-.125-.06-.244-.08-.369-.025-.175.085-.3.115-.454a1.583,1.583,0,0,0,.02-.569.4.4,0,0,1,.289-.554.985.985,0,0,0,.469-.3A2.245,2.245,0,0,0,995.487,1265Z" transform="translate(-672.988 -519.868)"/>
    <path id="Path_13" data-name="Path 13" d="M285.845,722.836c.609-.115,1.217-.224,1.831-.339q3.188-.6,6.371-1.192,3.562-.673,7.124-1.362c3.223-.629,6.446-1.247,9.659-1.906a11.192,11.192,0,0,1,4.405.035q4.715.891,9.424,1.8,5.239,1.01,10.477,2.026,2.155.419,4.306.843a1.45,1.45,0,0,1,.913.524c-.17.045-.309.09-.449.125q-4.767,1.235-9.534,2.46c-3.038.788-6.082,1.582-9.12,2.36-2.155.554-4.316,1.1-6.481,1.616a8.558,8.558,0,0,1-4.126-.125q-3.562-.9-7.119-1.831l-10.951-2.844c-1.891-.494-3.782-.983-5.668-1.487a3.543,3.543,0,0,1-.768-.349,2.919,2.919,0,0,1-.339-.274A.566.566,0,0,1,285.845,722.836Z"/>
    <path id="Path_14" data-name="Path 14" d="M1211.557,869.4c.015.095.03.175.035.254a54.238,54.238,0,0,1,.075,6.431,9.1,9.1,0,0,0,.085,1.562,1.766,1.766,0,0,0,.634,1.153.662.662,0,0,1,.175.713,6.344,6.344,0,0,1-.379,1.028,2.623,2.623,0,0,0-.15,1.846c.439,1.721.858,3.452,1.287,5.179a2.06,2.06,0,0,1,.035.2c-.439.02-.858.055-1.277.06-.763.01-1.532.01-2.3.01a1.209,1.209,0,0,1-.269-.03c-.329-.075-.459-.215-.409-.544.12-.753.254-1.507.419-2.25.2-.908.464-1.8.644-2.714a3.843,3.843,0,0,0-.244-2.3,1.052,1.052,0,0,1,.06-.938c.17-.334.384-.644.524-.988a2.4,2.4,0,0,0,.2-.883c.01-2.07-.01-4.141-.02-6.211a2.317,2.317,0,0,1,.255-1.182A.712.712,0,0,1,1211.557,869.4Z" transform="translate(-877.229 -144.005)"/>
    <rect id="Rectangle_3" data-name="Rectangle 3" width="0.798" height="34.175" transform="translate(344.247 720.037)"/>
    <g id="Group_2" data-name="Group 2" transform="translate(349.705 720.815)">
      <path id="Path_15" data-name="Path 15" d="M1566.7,786.835V779.9h1.786v6.93H1566.7Z" transform="translate(-1566.7 -779.785)"/>
      <path id="Path_16" data-name="Path 16" d="M1632.314,786.835l-2.929-4.011v4.011H1627.6V779.9h1.841l2.8,3.812V779.9h1.8v6.93h-1.726Z" transform="translate(-1624.562 -779.785)"/>
      <path id="Path_17" data-name="Path 17" d="M1774.5,781.187a3.536,3.536,0,0,1,3.752-3.587,3.246,3.246,0,0,1,2.964,1.681l-1.5.778a1.714,1.714,0,0,0-1.467-.883,2.007,2.007,0,0,0,0,4.011,2.218,2.218,0,0,0,1.277-.414v-.539h-1.557v-1.571h3.348v2.754a4,4,0,0,1-3.063,1.352A3.534,3.534,0,0,1,1774.5,781.187Z" transform="translate(-1764.133 -777.6)"/>
      <path id="Path_18" data-name="Path 18" d="M1936.066,786.835l-1.162-2.33h-.918v2.33H1932.2V779.9h3.472a2.231,2.231,0,0,1,2.41,2.3,2.1,2.1,0,0,1-1.382,2.08l1.412,2.544h-2.046Zm.194-4.635a.774.774,0,0,0-.863-.738h-1.412v1.487h1.412A.769.769,0,0,0,1936.261,782.2Z" transform="translate(-1913.965 -779.785)"/>
      <path id="Path_19" data-name="Path 19" d="M2069.9,786.835V779.9h5.084v1.557h-3.293v1.083h3.223V784.1h-3.223v1.172h3.293v1.557H2069.9Z" transform="translate(-2044.795 -779.785)"/>
      <path id="Path_20" data-name="Path 20" d="M2182.5,783.767l.948-1.342a3.129,3.129,0,0,0,2.215.913c.613,0,.988-.239.988-.574,0-.948-3.927-.185-3.927-2.859,0-1.162.988-2.205,2.764-2.205a4.215,4.215,0,0,1,2.814.968l-.978,1.277a3.265,3.265,0,0,0-2.025-.718c-.519,0-.748.21-.748.5,0,.883,3.916.239,3.916,2.814,0,1.392-1.028,2.315-2.888,2.315A4.191,4.191,0,0,1,2182.5,783.767Z" transform="translate(-2151.777 -777.695)"/>
      <path id="Path_21" data-name="Path 21" d="M2308.8,783.767l.948-1.342a3.13,3.13,0,0,0,2.215.913c.614,0,.988-.239.988-.574,0-.948-3.927-.185-3.927-2.859,0-1.162.988-2.205,2.764-2.205a4.215,4.215,0,0,1,2.814.968l-.978,1.277a3.266,3.266,0,0,0-2.026-.718c-.519,0-.748.21-.748.5,0,.883,3.916.239,3.916,2.814,0,1.392-1.028,2.315-2.889,2.315A4.174,4.174,0,0,1,2308.8,783.767Z" transform="translate(-2271.776 -777.695)"/>
      <path id="Path_22" data-name="Path 22" d="M2445,786.835V779.9h1.786v6.93H2445Z" transform="translate(-2401.181 -779.785)"/>
      <path id="Path_23" data-name="Path 23" d="M2493.609,786.835,2491,779.9h2.025l1.706,5,1.716-5h2.025l-2.619,6.93h-2.245Z" transform="translate(-2444.886 -779.785)"/>
      <path id="Path_24" data-name="Path 24" d="M2651,786.835V779.9h5.079v1.557h-3.293v1.083h3.223V784.1h-3.223v1.172h3.293v1.557H2651Z" transform="translate(-2596.904 -779.785)"/>
    </g>
    <g id="Group_3" data-name="Group 3" transform="translate(349.351 733.283)">
      <path id="Path_25" data-name="Path 25" d="M1559.6,1031.087a3.541,3.541,0,0,1,3.752-3.587,3.2,3.2,0,0,1,3.023,1.861l-1.537.729a1.671,1.671,0,0,0-1.487-1.008,2.007,2.007,0,0,0,0,4.011,1.671,1.671,0,0,0,1.487-1.008l1.537.728a3.224,3.224,0,0,1-3.023,1.861A3.546,3.546,0,0,1,1559.6,1031.087Z" transform="translate(-1559.6 -1027.5)"/>
      <path id="Path_26" data-name="Path 26" d="M1699.748,1036.83l-.344-1h-2.734l-.344,1H1694.3l2.609-6.93h2.245l2.619,6.93Zm-1.716-5.164-.883,2.609h1.766Z" transform="translate(-1687.579 -1029.78)"/>
      <path id="Path_27" data-name="Path 27" d="M1860.476,1036.83v-4.51l-1.756,4.51h-.788l-1.746-4.51v4.51H1854.4v-6.93h2.484l1.447,3.762,1.457-3.762h2.485v6.93Z" transform="translate(-1839.692 -1029.78)"/>
      <path id="Path_28" data-name="Path 28" d="M2037,1036.83v-6.93h3.472a2.3,2.3,0,1,1,0,4.6h-1.681v2.33Zm4.061-4.625a.745.745,0,0,0-.833-.748h-1.447v1.487h1.447A.743.743,0,0,0,2041.061,1032.2Z" transform="translate(-2013.182 -1029.78)"/>
      <path id="Path_29" data-name="Path 29" d="M2170.9,1034.026V1029.9h1.816v4.061a1.463,1.463,0,0,0,2.924,0V1029.9h1.806v4.116c0,1.726-1.048,2.938-3.262,2.938C2171.948,1036.954,2170.9,1035.727,2170.9,1034.026Z" transform="translate(-2140.402 -1029.78)"/>
      <path id="Path_30" data-name="Path 30" d="M2317.1,1033.667l.948-1.342a3.131,3.131,0,0,0,2.215.913c.614,0,.988-.239.988-.574,0-.948-3.926-.185-3.926-2.859,0-1.163.988-2.205,2.764-2.205a4.215,4.215,0,0,1,2.814.968l-.978,1.277a3.264,3.264,0,0,0-2.025-.719c-.519,0-.748.21-.748.5,0,.883,3.916.239,3.916,2.814,0,1.392-1.028,2.315-2.889,2.315A4.163,4.163,0,0,1,2317.1,1033.667Z" transform="translate(-2279.307 -1027.595)"/>
    </g>
    <g id="Group_4" data-name="Group 4" transform="translate(348.962 745.756)">
      <path id="Path_31" data-name="Path 31" d="M1557.248,1286.73l-.344-1h-2.734l-.344,1H1551.8l2.609-6.93h2.245l2.619,6.93Zm-1.711-5.164-.883,2.609h1.766Z" transform="translate(-1551.8 -1279.685)"/>
      <path id="Path_32" data-name="Path 32" d="M1717.976,1286.73v-4.51l-1.756,4.51h-.788l-1.746-4.51v4.51H1711.9v-6.93h2.485l1.447,3.762,1.457-3.762h2.485v6.93Z" transform="translate(-1703.912 -1279.685)"/>
      <path id="Path_33" data-name="Path 33" d="M1894.5,1286.73v-6.93h3.926a1.819,1.819,0,0,1,2.026,1.766,1.549,1.549,0,0,1-1.182,1.592,1.664,1.664,0,0,1,1.322,1.7,1.843,1.843,0,0,1-2.036,1.881H1894.5Zm4.136-4.849a.569.569,0,0,0-.614-.574h-1.736v1.153h1.736A.57.57,0,0,0,1898.636,1281.88Zm.135,2.719a.622.622,0,0,0-.683-.624h-1.8v1.247h1.8A.612.612,0,0,0,1898.771,1284.6Z" transform="translate(-1877.402 -1279.685)"/>
      <path id="Path_34" data-name="Path 34" d="M2026.748,1286.73l-.344-1h-2.734l-.344,1H2021.3l2.609-6.93h2.245l2.619,6.93Zm-1.716-5.164-.883,2.609h1.766Z" transform="translate(-1997.876 -1279.685)"/>
      <path id="Path_35" data-name="Path 35" d="M2170.5,1283.667l.948-1.342a3.128,3.128,0,0,0,2.215.913c.613,0,.988-.239.988-.574,0-.948-3.926-.185-3.926-2.859,0-1.162.988-2.205,2.764-2.205a4.214,4.214,0,0,1,2.814.968l-.978,1.277a3.266,3.266,0,0,0-2.025-.718c-.519,0-.748.21-.748.5,0,.883,3.916.239,3.916,2.814,0,1.392-1.028,2.315-2.889,2.315A4.194,4.194,0,0,1,2170.5,1283.667Z" transform="translate(-2139.633 -1277.595)"/>
      <path id="Path_36" data-name="Path 36" d="M2296.7,1283.667l.948-1.342a3.131,3.131,0,0,0,2.215.913c.614,0,.988-.239.988-.574,0-.948-3.926-.185-3.926-2.859,0-1.162.987-2.205,2.763-2.205a4.215,4.215,0,0,1,2.814.968l-.978,1.277a3.265,3.265,0,0,0-2.025-.718c-.519,0-.748.21-.748.5,0,.883,3.916.239,3.916,2.814,0,1.392-1.028,2.315-2.888,2.315A4.2,4.2,0,0,1,2296.7,1283.667Z" transform="translate(-2259.536 -1277.595)"/>
      <path id="Path_37" data-name="Path 37" d="M2421.448,1286.73l-.344-1h-2.734l-.344,1H2416l2.609-6.93h2.245l2.619,6.93Zm-1.716-5.164-.883,2.609h1.766Z" transform="translate(-2372.884 -1279.685)"/>
      <path id="Path_38" data-name="Path 38" d="M2576,1286.73v-6.93h2.908c2.18,0,3.752,1.307,3.752,3.462a3.415,3.415,0,0,1-3.742,3.472H2576Zm4.829-3.467a1.773,1.773,0,0,0-1.911-1.9h-1.133v3.812h1.123A1.838,1.838,0,0,0,2580.829,1283.262Z" transform="translate(-2524.902 -1279.685)"/>
      <path id="Path_39" data-name="Path 39" d="M2720.3,1281.087a3.706,3.706,0,1,1,3.712,3.587A3.53,3.53,0,0,1,2720.3,1281.087Zm5.593,0a1.89,1.89,0,1,0-1.881,2.006A1.869,1.869,0,0,0,2725.893,1281.087Z" transform="translate(-2662.002 -1277.5)"/>
      <path id="Path_40" data-name="Path 40" d="M2890.861,1286.73l-1.163-2.33h-.913v2.33H2887v-6.93h3.473a2.231,2.231,0,0,1,2.41,2.3,2.1,2.1,0,0,1-1.382,2.08l1.412,2.544Zm.2-4.635a.773.773,0,0,0-.863-.738h-1.412v1.487h1.412A.769.769,0,0,0,2891.06,1282.095Z" transform="translate(-2820.385 -1279.685)"/>
      <path id="Path_41" data-name="Path 41" d="M3014.6,1283.667l.948-1.342a3.129,3.129,0,0,0,2.215.913c.614,0,.988-.239.988-.574,0-.948-3.927-.185-3.927-2.859,0-1.162.988-2.205,2.764-2.205a4.215,4.215,0,0,1,2.814.968l-.978,1.277a3.266,3.266,0,0,0-2.025-.718c-.519,0-.749.21-.749.5,0,.883,3.917.239,3.917,2.814,0,1.392-1.027,2.315-2.889,2.315A4.2,4.2,0,0,1,3014.6,1283.667Z" transform="translate(-2941.619 -1277.595)"/>
    </g>
  </g>
</svg>
